{"title":"Confessions of a Dangerous Mind [2002] DVDRip","uid":6185863,"size":729571329,"categoryP":"video","categoryS":"movies","magnet":"?xt=urn:btih:63629b55c3e9b4b2ba4e4b259248f84ba5cf8991&amp;dn=Confessions+of+a+Dangerous+Mind+%5B2002%5D+DVDRip&amp;tr=udp%3A%2F%2Ftracker.openbittorrent.com%3A80&amp;tr=udp%3A%2F%2Fopen.demonii.com%3A1337&amp;tr=udp%3A%2F%2Ftracker.coppersurfer.tk%3A6969&amp;tr=udp%3A%2F%2Fexodus.desync.com%3A6969","seeders":0,"leechers":0,"uploader":"FrendZ","files":1,"time":1298106914,"description":"Format                           : MPEG-4\nFormat profile                   : Base Media / Version 2\nCodec ID                         : mp42\nFile size                        : 696 MiB\nDuration                         : 1h 48mn\nOverall bit rate                 : 894 Kbps\nEncoded date                     : UTC 2011-02-19 04:43:26\nTagged date                      : UTC 2011-02-19 04:44:26\nWriting application              : mp4creator 1.4.4\n\nVideo\nID                               : 1\nFormat                           : MPEG-4 Visual\nFormat profile                   : Simple@L1\nFormat settings, BVOP            : No\nFormat settings, QPel            : No\nFormat settings, GMC             : No warppoints\nFormat settings, Matrix          : Default (H.263)\nCodec ID                         : 20\nDuration                         : 1h 48mn\nBit rate mode                    : Variable\nBit rate                         : 766 Kbps\nMaximum bit rate                 : 6 201 Kbps\nWidth                            : 640 pixels\nHeight                           : 480 pixels\nDisplay aspect ratio             : 4:3\nFrame rate mode                  : Constant\nFrame rate                       : 25.000 fps\nColor space                      : YUV\nChroma subsampling               : 4:2:0\nBit depth                        : 8 bits\nScan type                        : Progressive\nBits/(Pixel*Frame)               : 0.100\nStream size                      : 596 MiB (86%)\nLanguage                         : English\nEncoded date                     : UTC 2011-02-19 04:43:26\nTagged date                      : UTC 2011-02-19 04:44:18\n\nAudio\nID                               : 2\nFormat                           : AAC\nFormat/Info                      : Advanced Audio Codec\nFormat version                   : Version 4\nFormat profile                   : LC\nCodec ID                         : 40\nDuration                         : 1h 48mn\nBit rate mode                    : Variable\nBit rate                         : 126 Kbps\nMaximum bit rate                 : 243 Kbps\nChannel(s)                       : 2 channels\nChannel positions                : Front: L R\nSampling rate                    : 44.1 KHz\nStream size                      : 97.7 MiB (14%)\nLanguage                         : English\nEncoded date                     : UTC 2011-02-19 04:44:19\nTagged date                      : UTC 2011-02-19 04:44:26\n\n\nSS -","torrent":{"xt":"urn:btih:63629b55c3e9b4b2ba4e4b259248f84ba5cf8991","amp;dn":"Confessions+of+a+Dangerous+Mind+%5B2002%5D+DVDRip","amp;tr":["udp%3A%2F%2Ftracker.openbittorrent.com%3A80","udp%3A%2F%2Fopen.demonii.com%3A1337","udp%3A%2F%2Ftracker.coppersurfer.tk%3A6969","udp%3A%2F%2Fexodus.desync.com%3A6969"],"infoHash":"63629b55c3e9b4b2ba4e4b259248f84ba5cf8991","infoHashBuffer":{"type":"Buffer","data":[99,98,155,85,195,233,180,178,186,78,75,37,146,72,248,75,165,207,137,145]},"announce":[],"urlList":[]}}